	/* XPM */
static const char *active_3_xpm[]={
"16 16 7 1",
". c None",
"b c #000000",
"a c #800000",
"d c #808080",
"e c #c0c0c0",
"c c #ff0000",
"# c #ffffff",
"................",
".....#######....",
"...a#########aa.",
"..a#a##bbbb#acda",
".aeea#bb##bbadda",
".aaaa#####bbaaaa",
"a...c#####bba...",
"ec..c###bbb##a..",
"a..c######bb#a..",
"ec.c######bb##a.",
"a..ea#bb##bbaaa.",
"ec.ea##bbbb#aaa.",
"a..ea#######aaa.",
".c..e#######ea..",
"................",
"................"};
