/* XPM */
static char *active_5_xpm[]={
"16 16 7 1",
". c None",
"b c #000000",
"a c #800000",
"d c #808080",
"e c #c0c0c0",
"c c #ff0000",
"# c #ffffff",
"................",
".....#######....",
"...a#########aa.",
"..a#a#bbbbbbacda",
".aeea#bb####adda",
".aaaa#bb####aaaa",
"a...c#bbbbb#a...",
"ec..c#bb##bb#a..",
"a..c######bb#a..",
"ec.c######bb##a.",
"a..ea#bb##bbaaa.",
"ec.ea##bbbb#aaa.",
"a..ea#######aaa.",
".c..e#######ea..",
"................",
"................"};
