/* XPM */
static const char *active_many_xpm[]={
"16 16 7 1",
". c None",
"e c #000000",
"a c #800000",
"c c #808080",
"d c #c0c0c0",
"b c #ff0000",
"# c #ffffff",
"................",
".....#######....",
"...a#########aa.",
"..a#a#######abca",
".adda#######acca",
".aaaa#ee#ee#aaaa",
"a...be##e##ea...",
"db..be##e##e#a..",
"a..b#e##e##e#a..",
"db.b##ee#ee###a.",
"a..da#######aaa.",
"db.da#######aaa.",
"a..da#######aaa.",
".b..d#######da..",
"................",
"................"};
