/* XPM */
static char *active_4_xpm[]={
"16 16 7 1",
". c None",
"b c #000000",
"a c #800000",
"d c #808080",
"e c #c0c0c0",
"c c #ff0000",
"# c #ffffff",
"................",
".....#######....",
"...a#########aa.",
"..a#a####bb#acda",
".aeea###bbb#adda",
".aaaa###bbb#aaaa",
"a...c##bb#b#a...",
"ec..c##b##b##a..",
"a..c##bb##b##a..",
"ec.c##bbbbbb##a.",
"a..ea####bb#aaa.",
"ec.ea####bb#aaa.",
"a..ea#######aaa.",
".c..e#######ea..",
"................",
"................"};
