/* XPM */
static char *channel_xpm[]={
"16 16 10 1",
". c None",
"d c #000040",
"# c #0000ff",
"a c #202000",
"c c #2060ff",
"b c #2080ff",
"h c #606040",
"e c #808080",
"g c #c0c0ff",
"f c #ffffff",
"................",
".##############a",
".#bcccccccccbcba",
".dddddddddddddda",
".efffffffgefffga",
".efhhhfhhgefhhga",
".efffffffgefffga",
".efhhhfhhgefhhga",
".efffffffgefffga",
".efhhfhhhgefhhga",
".efffffffgefffga",
".efhhhhfhgefhhga",
".efffffffgefffga",
".eggggggggegggga",
".aaaaaaaaaaaaaaa",
"................"};
