/* XPM */
static char *dirt_xpm[]={
"32 32 6 1",
". c None",
"a c #800000",
"c c #808080",
"d c #c0c0c0",
"# c #ff0000",
"b c #ffffff",
"................................",
"................................",
"................................",
"..........#aaaaaaaaaaaaa........",
".......aaabbccccccccccccaaa.....",
".....aaabcaaaaaaaaaaaaa#bcaaa...",
"....aabc#aa#daaaaaaaadaaa#bcaa..",
"...aabc#aaaada......adaaaa#bcaa.",
"..aabc#aca#ddaaaaaaaaddaaca#bcaa",
"..aaaaaaaaadadadadadaadaaaaaaaaa",
"..addddacaadaaaaaaaaaadaacccabaa",
".aaaaaaaa#bbbbbbbbbbbbbbaaaaaaaa",
"#a.###aa#baaaaaaaaaaaaaabaaaa#a.",
"d.......#babdbdbdbdbdbdaba......",
"#a......#babaadaaadaadcada......",
"d......#babddddddddddddcaba.....",
"#a.....#babaaadaaadaaadcada.....",
"d.....#babddddddddddddddcaba....",
"#a....#b############aa#a#ada....",
"d....#bbbbbbbbbbbbbbbbbbbbbba...",
"#a...#d#a#a#a#a#a#a#a#a#a#aca...",
"d....#daaaaaaaaaaaaaaaaaaaaca...",
"#a...#daaaaaaaaaaaaaaaaaaaaca...",
"d....#daaaaaaaaaaaaaaaaaaaaca...",
"#a...#daaaaaaaaaaaaaaaaaaaaca...",
"d....#daaaaaaaaaaaaaaaaaaaaca...",
"#a.#.aaaaaaaaaaaaaaaaaaaaaaaa...",
".#a....#dca............#dca.....",
".......aaaa............aaaa.....",
"................................",
"................................",
"................................"};
