/* XPM */
static char *disabled_xpm[]={
"32 32 5 1",
". c None",
"a c #808080",
"b c #c0c0c0",
"# c #ff0000",
"c c #ffffff",
"................................",
"................................",
"......#####.........#####.......",
".....#######aaaaaaaa#####.......",
".....#######bbbbbbb######aa.....",
".....########aaaaaa#####bcaaa...",
"....aa#######aaaaa######aabcaa..",
"...aacc#######cccc#####aaaabcaa.",
"..aaccaab#####aaa#####caabaabcaa",
"..aaaaaaaa###########acaaaaaaaaa",
"..accccaba##########aacaabbbacaa",
".aaaaaaaaac########cccccaaaaaaaa",
"aa.aaaaaaca#######aaaaaacaaaaaa.",
"b.......acac#######ccccaca......",
"aa......acac########acbaca......",
"b......acac#########cccbaca.....",
"aa.....aca############cbaca.....",
"b.....aca#####c#######ccbaca....",
"aa....ac#####aaa#######aaaca....",
"b....ac######cccc#######cccca...",
"aa...a######aaaaaa########aba...",
"b....a######aaaaaa########aba...",
"aa...######aaaaaaaa########ba...",
"b....######aaaaaaaaa#######ba...",
"aa.#######aaaaaaaaaaa######ba...",
"b..#######aaaaaaaaaaaa#####ba...",
"aa.######aaaaaaaaaaaaaa###aaa...",
".aa.####cba............acba.....",
".......aaaa............aaaa.....",
"................................",
"................................",
"................................"};
