/* XPM */
static char *enabled_xpm[]={
"32 32 5 1",
". c None",
"# c #000000",
"a c #808080",
"b c #c0c0c0",
"c c #ffffff",
"................................",
"................................",
"................................",
"..........##############........",
".......###aaaaaaaaaaaaaa###.....",
".....###bb##############ac###...",
"....##cb####b########b####ac##..",
"...##bb#####b#......#b#####ac##.",
"..##bc##a##bb########bb##a##ac##",
"..#########b#b#b#b#b##b#########",
"..#bbbb#a##b##########b##aaa#c##",
".#########cccccccccccccc########",
"##.######c##############c######.",
"b.......#c#cbcbcbcbcbcb#c#......",
"##......#c#c##b###b##ba#b#......",
"b......#c#cbbbbbbbbbbbba#c#.....",
"##.....#c#c###b###b###ba#b#.....",
"b.....#c#cbbbbbbbbbbbbbba#c#....",
"##....#c##################b#....",
"b....#cccccccccccccccccccccc#...",
"##...#b####################a#...",
"b....#b####################a#...",
"##...#b####################a#...",
"b....#b####################a#...",
"##...#b####################a#...",
"b....#b####################a#...",
"##.#.########################...",
".##....#ba#............#ba#.....",
".......####............####.....",
"................................",
"................................",
"................................"};
