/* XPM */
static const char *query_xpm[]={
"16 16 13 1",
". c None",
"d c #000040",
"# c #0000ff",
"k c #006000",
"a c #202000",
"c c #2060ff",
"b c #2080ff",
"g c #40a000",
"j c #40a040",
"i c #806000",
"e c #808080",
"h c #c0c0ff",
"f c #ffffff",
"................",
".##############a",
".#bcccccccccbcba",
".dddddddddddddda",
".efffffffffggfha",
".efiiifiifjkkjha",
".effffffffkffkha",
".efiiifiifffjkha",
".efffffffffjkfha",
".efiifiiiffkffha",
".efffffffffgffha",
".efiiiififfkffha",
".effffffffffffha",
".ehhhhhhhhhhhhha",
".aaaaaaaaaaaaaaa",
"................"};
