/* XPM */
static const char *receive_xpm[]={
"16 16 19 1",
". c None",
"k c #000000",
"d c #000040",
"# c #0000ff",
"a c #202000",
"c c #2060ff",
"b c #2080ff",
"j c #606000",
"i c #606040",
"f c #808080",
"e c #c00000",
"q c #c0a000",
"h c #c0c0ff",
"p c #ffa000",
"o c #ffc000",
"n c #ffff00",
"m c #ffff40",
"l c #ffff80",
"g c #ffffff",
"................",
".#######a.......",
".#bccbcba.......",
".ddddddda.eeee..",
".fgggggha....e..",
".fgiigiha....e..",
".fhhhhhha..eeeee",
".aaaaaaaa...eee.",
".............e..",
".........jjjk...",
"........jllljjjf",
"........jlmnoopk",
"........jlnoooqk",
"........jlooopqk",
"........fkkkkkkf",
"................"};
