/* XPM */
static const char *send_xpm[]={
"16 16 19 1",
". c None",
"b c #000000",
"o c #000040",
"k c #0000ff",
"l c #202000",
"n c #2060ff",
"m c #2080ff",
"a c #606000",
"q c #606040",
"d c #808080",
"j c #c00000",
"i c #c0a000",
"# c #c0c0ff",
"h c #ffa000",
"g c #ffc000",
"f c #ffff00",
"e c #ffff40",
"c c #ffff80",
"p c #ffffff",
"................",
".#aaab..........",
".acccaaad.......",
".acefgghb.......",
".acfgggib.......",
".acggghib.......",
".dbbbbbbd.......",
"................",
"..j.....kkkkkkkl",
"..j.....kmnnmnml",
"..j..j..oooooool",
"..j..jj.dppppp#l",
"..jjjjjjdpqqpq#l",
".....jj.d######l",
".....j..llllllll",
"................"};
