/* XPM */
static char *sound_disabled_xpm[]={
"16 16 5 1",
". c None",
"# c #000000",
"a c #808080",
"c c #c0c0c0",
"b c #ffffff",
".......##.......",
"......aa#a......",
".....ab#cc......",
"....acaacba...a.",
"...acb#cbba..a..",
".aacbc#cbba.a...",
"abcbcb##bba.....",
"abccbc#c#ba.....",
"abcbcb#a#ba.aaaa",
"#aacbc##bba.....",
".##acb#cbba.....",
"...#ac#cbba.a...",
"....#aaabba..a..",
".....#a#cca...a.",
"......#a#a......",
".......##......."};
